<svg width="340" height="340" viewBox="0 0 340 340" fill="none" xmlns="http://www.w3.org/2000/svg">
<path d="M310.995 271.232H302.691V277.706H310.995V271.232Z" fill="#DE8E68"/>
<path d="M286.501 104.918C285.566 104.216 278.457 94.0525 276.661 86.8331C274.864 79.6138 274.708 107.964 274.708 107.964L279.16 111.868L286.501 104.918Z" fill="#FCC486"/>
<path d="M285.56 209.239L275.907 226.131L273.493 173.641L288.878 174.145L285.56 209.239Z" fill="#729090"/>
<path d="M295.556 102.221C320.022 107.383 312.412 163.767 307.669 168.385C302.926 173.003 267.974 173.862 264.602 170C261.231 166.138 264.852 95.7356 295.556 102.221Z" fill="#E2B359"/>
<path d="M298.993 108.488C298.71 110.364 287.637 109.029 288.119 106.451L290.935 91.4344L301.81 93.4745C301.81 93.4745 299.279 106.615 298.993 108.488Z" fill="#D37C59"/>
<path d="M305.411 86.046C306.972 77.7144 303.378 70.0501 297.384 68.9273C291.391 67.8045 285.267 73.6484 283.706 81.98C282.145 90.3117 285.739 97.976 291.733 99.0988C297.726 100.222 303.851 94.3776 305.411 86.046Z" fill="#DE8E68"/>
<path d="M286.308 59.075C289.213 59.075 290.434 61.0583 297.925 61.0583C301.569 61.0583 308.975 61.8346 308.975 71.2583C308.975 77.5879 312.658 78.0583 312.658 82.0249C312.658 84.0083 310.905 88.8249 306.425 88.8249C304.442 88.8249 302.458 85.4249 302.458 84.2916C302.458 83.1583 303.592 82.3083 303.592 81.4583C303.614 77.3641 290.352 75.089 289.468 71.4056C288.507 72.2868 286.297 75.0039 285.473 76.7634C284.339 76.1826 284.47 75.2391 283.206 74.3749C282.115 73.6354 278.715 71.7428 278.715 67.9745C278.701 66.1016 280.653 59.075 286.308 59.075Z" fill="#1E282D"/>
<path d="M304.003 90.3834C305.963 90.3834 307.553 88.794 307.553 86.8332C307.553 84.8725 305.963 83.2831 304.003 83.2831C302.042 83.2831 300.452 84.8725 300.452 86.8332C300.452 88.794 302.042 90.3834 304.003 90.3834Z" fill="#DE8E68"/>
<path d="M306.912 168.949L312.454 271.807H302.314L275.323 175.213V169.326L306.912 168.949Z" fill="#9EB6B6"/>
<path d="M276.97 59.1884H20.6833V248.311H276.97V59.1884Z" fill="#9EB6B6"/>
<path d="M276.97 81.3846H20.6833V270.507H276.97V81.3846Z" fill="#FAFAFA"/>
<path d="M289.949 131.77C287.595 132.985 284.178 134.731 281.823 139.363C278.862 138.83 264.129 136.173 253.575 136.326C252.589 138.451 250.917 141.794 251.591 142.25C252.266 142.706 273.918 151.742 289.105 150.373C291.088 150.515 299.067 143.007 299.325 142.4C299.583 141.794 289.949 131.77 289.949 131.77Z" fill="#DE8E68"/>
<path d="M254.996 140.127C255.705 137.682 253.322 134.843 249.674 133.786C246.027 132.729 242.495 133.854 241.787 136.3C241.078 138.745 243.461 141.584 247.108 142.641C250.756 143.698 254.288 142.573 254.996 140.127Z" fill="#DE8E68"/>
<path d="M254.909 55.1679C258.942 55.1679 262.211 52.3708 262.211 48.9204C262.211 45.47 258.942 42.6729 254.909 42.6729C250.877 42.6729 247.608 45.47 247.608 48.9204C247.608 52.3708 250.877 55.1679 254.909 55.1679Z" fill="#DE8E68"/>
<path d="M177.908 117.98H83.9148V270.507H212.463V152.535L177.908 117.98Z" fill="#9EB6B6"/>
<path d="M118.821 191.182C127.062 191.182 133.742 184.502 133.742 176.262C133.742 168.021 127.062 161.341 118.821 161.341C110.581 161.341 103.901 168.021 103.901 176.262C103.901 184.502 110.581 191.182 118.821 191.182Z" fill="#FAFAFA"/>
<path d="M192.477 187.759H141.76V191.769H192.477V187.759Z" fill="#FAFAFA"/>
<path d="M192.48 205.689H103.901V209.698H192.48V205.689Z" fill="#FAFAFA"/>
<path d="M192.48 223.615H103.901V227.624H192.48V223.615Z" fill="#FAFAFA"/>
<path d="M270.017 46.3931H192.193C188.353 46.3931 185.24 49.506 185.24 53.3461V81.8721C185.24 85.7121 188.353 88.8251 192.193 88.8251H270.017C273.857 88.8251 276.97 85.7121 276.97 81.8721V53.3461C276.97 49.506 273.857 46.3931 270.017 46.3931Z" fill="#FAFAFA"/>
<path d="M185.241 53.3459C185.241 56.5533 175.369 81.396 122.808 81.396C122.808 86.751 188.003 84.0508 188.003 84.0508L188.966 53.8644L185.241 53.3459Z" fill="#FAFAFA"/>
<path d="M312.233 117.779C318.75 125.123 302.742 146.237 299.656 145.364C296.021 144.336 284.96 133.983 284.872 130.398C284.784 126.814 304.195 108.726 312.233 117.779Z" fill="#FFD075"/>
<path d="M302.691 276.018V281.296L315.707 297.826L319.6 295.933L311.627 276.018H302.691Z" fill="#1E282D"/>
</svg>
