<svg width="192" height="138" viewBox="0 0 192 138" fill="none" xmlns="http://www.w3.org/2000/svg">
<g clip-path="url(#clip0)">
<path d="M129.166 24.1996C142.522 36.947 154.199 49.017 167.366 66.175C180.533 83.3331 195.145 105.583 188.218 118.866C181.299 132.098 152.806 136.364 132.145 137.579C111.53 138.84 98.7012 137.045 87.0685 135.447C75.3931 133.896 64.8215 132.537 50.2133 129.339C35.5588 126.139 16.8678 121.106 7.36279 108.942C-2.09772 96.7785 -2.43904 77.4834 6.35367 64.5919C15.1464 51.7004 33.0175 45.1396 47.8167 32.875C62.5676 20.6123 74.2449 2.53169 87.5545 0.254298C100.91 -2.02496 115.856 11.4504 129.166 24.1996Z" fill="#FAFAFA"/>
<path d="M1.41528 62.0097C7.63139 69.0514 31.611 84.0219 34.6569 86.1983C37.7028 88.3746 87.3092 122.083 91.368 123.694C114.587 122.676 124.99 104.502 124.99 99.8944C124.99 95.2872 100.22 62.4812 89.4555 61.2499C87.5337 61.031 65.1012 67.9867 65.1012 67.9867L15.5986 25.7324C9.61624 20.7977 1.41528 14.3005 1.41528 14.3005V62.019" fill="#D37C59"/>
<path d="M137.857 54.3488L127.457 60.4062L152.678 104.474L163.078 98.4163L137.857 54.3488Z" fill="#FFD075"/>
<path d="M154.724 99.2488C156.547 99.2488 158.026 97.7575 158.026 95.9179C158.026 94.0782 156.547 92.5869 154.724 92.5869C152.9 92.5869 151.422 94.0782 151.422 95.9179C151.422 97.7575 152.9 99.2488 154.724 99.2488Z" fill="#E2B359"/>
<path d="M128.637 62.4681C127.402 63.2054 120.197 66.8414 117.795 66.5382C115.392 66.2351 104.583 62.2978 101.285 63.5086C97.9868 64.7193 82.364 71.6862 82.364 71.6862C82.364 71.6862 68.253 86.8289 67.9543 87.1339C67.6557 87.4389 67.9358 89.793 68.3661 90.1692C68.7965 90.5453 73.6455 92.0218 74.4487 91.5296C75.2519 91.0375 86.0981 82.6428 88.0496 82.6428C90.001 82.6428 108.618 96.1405 119.707 108.055C122.265 106.932 145.874 92.5869 145.874 92.5869L128.637 62.4681Z" fill="#DE8E68"/>
<path d="M53.962 98.7921C53.962 98.7921 52.9974 104.286 55.1325 107.415C57.2676 110.544 73.8828 121.6 76.2257 121.948C78.5686 122.296 82.8425 118.954 83.3248 117.082C83.8071 115.211 80.7055 108.321 79.8096 107.352C78.9136 106.382 66.0937 97.3325 64.7135 97.1211C63.3334 96.9096 56.0989 97.471 53.962 98.7921Z" fill="#DE8E68"/>
<path d="M55.5833 108.055L64.7636 101.036" stroke="#C5754F" stroke-width="1.62" stroke-linecap="round" stroke-linejoin="round"/>
<path d="M62.7881 113.939L71.9703 106.919" stroke="#C5754F" stroke-width="1.62" stroke-linecap="round" stroke-linejoin="round"/>
<path d="M69.8167 118.512L76.7952 113.179" stroke="#C5754F" stroke-width="1.62" stroke-linecap="round" stroke-linejoin="round"/>
<path d="M114.481 115.2L88.3611 93.7845" stroke="#C5754F" stroke-width="1.62" stroke-linecap="round" stroke-linejoin="round"/>
<path d="M104.767 120.653L88.1997 107.071" stroke="#C5754F" stroke-width="1.62" stroke-linecap="round" stroke-linejoin="round"/>
<path d="M96.4842 123.546L82.8518 112.37" stroke="#C5754F" stroke-width="1.62" stroke-linecap="round" stroke-linejoin="round"/>
<path d="M43.0769 67.4998L33.2681 59.0397C31.4195 57.4452 28.6396 57.6645 27.0591 59.5293L17.3684 70.9633C15.7879 72.8282 16.0052 75.6325 17.8538 77.2269L27.6626 85.6871C29.5112 87.2815 32.291 87.0622 33.8715 85.1974L43.5623 73.7634C45.1428 71.8985 44.9255 69.0942 43.0769 67.4998Z" fill="#146565"/>
<path d="M52.137 56.4746L43.019 48.6104L33.8093 59.4769L42.9273 67.3412L52.137 56.4746Z" fill="#054B4B"/>
<path fill-rule="evenodd" clip-rule="evenodd" d="M42.0141 121.263C41.3623 121.263 40.7966 121.802 40.7966 122.513C40.7966 123.224 41.3623 123.763 42.0141 123.763C42.6658 123.763 43.2315 123.224 43.2315 122.513C43.2315 121.802 42.6658 121.263 42.0141 121.263ZM35.7966 122.513C35.7966 119.082 38.5597 116.263 42.0141 116.263C45.4684 116.263 48.2315 119.082 48.2315 122.513C48.2315 125.944 45.4684 128.763 42.0141 128.763C38.5597 128.763 35.7966 125.944 35.7966 122.513Z" fill="#054B4B"/>
<path fill-rule="evenodd" clip-rule="evenodd" d="M136.84 115.708C136.189 115.708 135.639 116.244 135.639 116.933C135.639 117.621 136.189 118.157 136.84 118.157C137.49 118.157 138.04 117.621 138.04 116.933C138.04 116.244 137.49 115.708 136.84 115.708ZM132.639 116.933C132.639 114.612 134.507 112.708 136.84 112.708C139.172 112.708 141.04 114.612 141.04 116.933C141.04 119.253 139.172 121.157 136.84 121.157C134.507 121.157 132.639 119.253 132.639 116.933Z" fill="#054B4B"/>
<path fill-rule="evenodd" clip-rule="evenodd" d="M118.444 54.866C119.194 54.866 119.743 54.2619 119.743 53.5906C119.743 52.9193 119.194 52.3152 118.444 52.3152C117.693 52.3152 117.144 52.9193 117.144 53.5906C117.144 54.2619 117.693 54.866 118.444 54.866ZM111.743 53.5906C111.743 49.9098 114.71 46.866 118.444 46.866C122.177 46.866 125.144 49.9098 125.144 53.5906C125.144 57.2714 122.177 60.3152 118.444 60.3152C114.71 60.3152 111.743 57.2714 111.743 53.5906Z" fill="#054B4B"/>
<path d="M106.673 19.7273H60.0796V38.3843H106.673V19.7273Z" fill="#E4E5E5"/>
<path d="M95.3155 45.1809L98.8864 37.6077H91.7446L95.3155 45.1809Z" fill="#FAFAFA"/>
<path d="M66.4072 24.4767H100.344" stroke="#054B4B" stroke-width="3.24" stroke-linecap="round" stroke-linejoin="round"/>
<path d="M66.4072 29.0558H100.344" stroke="#054B4B" stroke-width="3.24" stroke-linecap="round" stroke-linejoin="round"/>
<path d="M66.4072 33.6331H100.344" stroke="#054B4B" stroke-width="3.24" stroke-linecap="round" stroke-linejoin="round"/>
<path d="M191.993 21.6342L188.628 23.6795C188.628 23.6795 149.973 47.2674 137.856 54.3485L158.027 89.5909L191.993 71.4092V21.6342Z" fill="#146565"/>
</g>
<defs>
<clipPath id="clip0">
<rect width="192" height="138" fill="white"/>
</clipPath>
</defs>
</svg>
