<svg width="40" height="40" viewBox="0 0 40 40" fill="none" xmlns="http://www.w3.org/2000/svg">
<rect width="40" height="40" rx="2" fill="#434B50"/>
<path d="M27.0411 32H10.7386C10.6408 32 10.5486 31.9543 10.4894 31.8763C10.4302 31.7985 10.411 31.6974 10.4372 31.6031L11.6968 27.0797C10.5848 25.7654 9.94723 24.0622 9.88177 22.2373H9.31291C9.14006 22.2373 9 22.0972 9 21.9244V21.7053C9 20.9634 9.60354 20.3598 10.3455 20.3598H21.1899C21.8632 20.3598 22.4227 20.8571 22.5202 21.5037C22.6867 21.4182 22.8281 21.2847 22.9274 21.1131C23.0104 20.9696 23.0542 20.7932 23.0542 20.6027V11.5359H22.809C22.6361 11.5359 22.4961 11.3958 22.4961 11.2229V10.3155C22.4961 9.78069 22.9313 9.3455 23.4661 9.3455H25.5159C25.4719 9.23398 25.4479 9.11257 25.4479 8.98566C25.4479 8.44208 25.8901 8 26.4336 8C26.977 8 27.4192 8.44208 27.4192 8.98566C27.4192 9.11257 27.3951 9.23398 27.3513 9.3455H29.4011C29.9359 9.3455 30.3711 9.78069 30.3711 10.3155V11.2229C30.3711 11.3958 30.231 11.5359 30.0582 11.5359H29.813V19.7283C29.813 20.6622 29.5193 21.4729 28.8888 22.2796C28.7908 22.4051 28.6774 22.5457 28.5651 22.6849C28.4719 22.8004 28.3794 22.9149 28.2975 23.0187C28.2144 23.1241 28.127 23.2305 28.0373 23.3397C27.4151 24.0968 26.7101 24.955 26.5388 26.6186C26.3955 28.0119 27.3083 31.4862 27.3176 31.521L27.3406 31.5961C27.3694 31.691 27.3516 31.7937 27.2926 31.8735C27.2334 31.9531 27.1401 32 27.0411 32ZM11.1506 31.3742H26.6342C26.4048 30.4555 25.7865 27.8159 25.9163 26.5547C26.1066 24.7035 26.9089 23.727 27.5537 22.9425C27.6406 22.8366 27.7255 22.7334 27.8061 22.6313C27.8893 22.5258 27.9832 22.4094 28.078 22.292C28.1881 22.1553 28.2995 22.0175 28.3958 21.8943C28.9357 21.2034 29.1872 20.5152 29.1872 19.7283V11.5359H23.68V20.6025C23.68 20.9029 23.607 21.1879 23.4691 21.4264C23.2259 21.8468 22.8084 22.1334 22.3407 22.2141C22.3042 22.229 22.2643 22.2373 22.2225 22.2373H10.5078C10.5748 23.9689 11.1969 25.5769 12.2768 26.7937C12.2771 26.7942 12.2776 26.7948 12.2781 26.7953C12.2795 26.7969 12.2808 26.7984 12.282 26.7999C12.3047 26.8263 13.8194 28.558 16.715 28.558C16.8879 28.558 17.028 28.6981 17.028 28.8709C17.028 29.0438 16.8879 29.1838 16.715 29.1838C14.3754 29.1838 12.8715 28.1725 12.2029 27.5944L11.1506 31.3742ZM10.1889 21.6115H21.9033C21.8571 21.2589 21.5547 20.9857 21.1897 20.9857H10.3454C9.98028 20.9857 9.67788 21.2589 9.63182 21.6115H10.1889ZM29.4999 10.91H29.7451V10.3155C29.7451 10.1256 29.5908 9.97132 29.4009 9.97132H23.466C23.2762 9.97132 23.1218 10.1256 23.1218 10.3155V10.91H29.4999ZM26.4334 8.62581C26.2351 8.62581 26.0736 8.78728 26.0736 8.98566C26.0736 9.18404 26.2351 9.3455 26.4334 9.3455C26.6318 9.3455 26.7933 9.18404 26.7933 8.98566C26.7933 8.78728 26.632 8.62581 26.4334 8.62581Z" fill="#E2B359"/>
</svg>
