<svg width="40" height="40" viewBox="0 0 40 40" fill="none" xmlns="http://www.w3.org/2000/svg">
<rect width="40" height="40" rx="2" fill="#434B50"/>
<path d="M29.8601 7H9.99613C9.44688 7 9 7.44688 9 7.99613V13.1341C9 13.3445 9.17052 13.515 9.38086 13.515C9.5912 13.515 9.76172 13.3445 9.76172 13.1341V7.99613C9.76172 7.86689 9.86689 7.76172 9.99613 7.76172H29.8601C29.9894 7.76172 30.0945 7.86689 30.0945 7.99613V28.094H26.249C26.0387 28.094 25.8681 28.2645 25.8681 28.4748C25.8681 28.6852 26.0387 28.8557 26.249 28.8557H30.0945V32.0039C30.0945 32.1332 29.9894 32.2383 29.8601 32.2383H9.99613C9.86689 32.2383 9.76172 32.1332 9.76172 32.0039V28.8557H24.4544C24.6648 28.8557 24.8353 28.6852 24.8353 28.4748C24.8353 28.2645 24.6648 28.094 24.4544 28.094H9.76172V14.9286C9.76172 14.7183 9.5912 14.5478 9.38086 14.5478C9.17052 14.5478 9 14.7183 9 14.9286V32.0039C9 32.5531 9.44688 33 9.99613 33H29.8601C30.4094 33 30.8562 32.5531 30.8562 32.0039V7.99613C30.8562 7.44688 30.4094 7 29.8601 7V7Z" fill="#E2B359"/>
<path d="M11.8491 15.7992L11.4392 16.209C11.2905 16.3578 11.2904 16.5989 11.4392 16.7477C11.5135 16.8221 11.611 16.8592 11.7085 16.8592C11.8059 16.8592 11.9034 16.8221 11.9778 16.7477L12.3858 16.3398C13.1264 16.965 14.0822 17.3428 15.125 17.3428C16.1678 17.3428 17.1235 16.965 17.8641 16.3399L18.2721 16.7477C18.3465 16.8221 18.4439 16.8592 18.5414 16.8592C18.6389 16.8592 18.7364 16.8221 18.8107 16.7477C18.9594 16.5989 18.9594 16.3578 18.8107 16.209L18.4008 15.7993C19.0109 15.063 19.3782 14.1185 19.3782 13.0898C19.3782 12.0471 19.0003 11.0913 18.3752 10.3508L18.8107 9.91541C18.9594 9.76667 18.9595 9.52556 18.8107 9.37677C18.662 9.22803 18.4208 9.22798 18.2721 9.37672L17.8346 9.8141C17.0982 9.20396 16.1537 8.83671 15.125 8.83671C14.0962 8.83671 13.1517 9.20401 12.4153 9.81415L11.9777 9.37672C11.829 9.22803 11.5878 9.22803 11.4391 9.37677C11.2904 9.52556 11.2904 9.76667 11.4392 9.91541L11.8747 10.3508C11.2496 11.0914 10.8718 12.0471 10.8718 13.0898C10.8718 14.1185 11.239 15.063 11.8491 15.7992ZM13.06 11.5358C13.1344 11.6101 13.2319 11.6473 13.3293 11.6473C13.4268 11.6473 13.5243 11.6101 13.5987 11.5357C13.7474 11.3869 13.7474 11.1458 13.5986 10.9971L12.9573 10.3559C13.5533 9.88235 14.3064 9.59838 15.125 9.59838C15.9436 9.59838 16.6967 9.8823 17.2927 10.3558L16.6513 10.9971C16.5025 11.1458 16.5025 11.3869 16.6512 11.5357C16.7256 11.6101 16.823 11.6473 16.9205 11.6473C17.018 11.6473 17.1154 11.6101 17.1898 11.5358L17.8347 10.8912C18.323 11.4919 18.6164 12.2571 18.6164 13.0898C18.6164 13.9084 18.3325 14.6615 17.8589 15.2576L17.2174 14.6162C17.0687 14.4675 16.8276 14.4675 16.6788 14.6163C16.5301 14.7651 16.5301 15.0062 16.6788 15.1549L17.3235 15.7995C16.7229 16.2878 15.9577 16.5812 15.125 16.5812C14.2923 16.5812 13.5271 16.2878 12.9264 15.7994L13.5711 15.1549C13.7198 15.0062 13.7199 14.7651 13.5712 14.6163C13.4224 14.4675 13.1813 14.4675 13.0325 14.6162L12.3911 15.2575C11.9175 14.6615 11.6335 13.9084 11.6335 13.0898C11.6335 12.2571 11.927 11.4919 12.4153 10.8912L13.06 11.5358Z" fill="#E2B359"/>
<path d="M15.1249 14.7188C16.0231 14.7188 16.7539 13.988 16.7539 13.0897C16.7539 12.1915 16.0231 11.4608 15.1249 11.4608C14.2266 11.4608 13.4958 12.1915 13.4958 13.0897C13.4958 13.988 14.2266 14.7188 15.1249 14.7188ZM15.1249 12.2226C15.6031 12.2226 15.9922 12.6116 15.9922 13.0898C15.9922 13.568 15.6031 13.957 15.1249 13.957C14.6467 13.957 14.2576 13.568 14.2576 13.0897C14.2576 12.6115 14.6467 12.2226 15.1249 12.2226Z" fill="#E2B359"/>
<path d="M21.4305 15.7992L21.0206 16.209C20.8718 16.3578 20.8718 16.5989 21.0205 16.7477C21.0949 16.8221 21.1924 16.8592 21.2899 16.8592C21.3873 16.8592 21.4847 16.8221 21.5591 16.7477L21.9672 16.3398C22.7078 16.965 23.6636 17.3428 24.7064 17.3428C25.7491 17.3428 26.7049 16.965 27.4455 16.3399L27.8534 16.7477C27.9278 16.8221 28.0252 16.8592 28.1227 16.8592C28.2202 16.8592 28.3177 16.8221 28.3921 16.7477C28.5408 16.5989 28.5408 16.3578 28.392 16.209L27.9822 15.7993C28.5923 15.063 28.9595 14.1185 28.9595 13.0898C28.9595 12.0471 28.5817 11.0913 27.9566 10.3508L28.392 9.91541C28.5408 9.76667 28.5408 9.52556 28.3921 9.37677C28.2433 9.22803 28.0022 9.22798 27.8534 9.37672L27.4159 9.8141C26.6796 9.20396 25.7351 8.83671 24.7063 8.83671C23.6775 8.83671 22.733 9.20401 21.9967 9.81415L21.5591 9.37672C21.4103 9.22803 21.1692 9.22803 21.0205 9.37677C20.8718 9.52556 20.8718 9.76667 21.0205 9.91541L21.456 10.3508C20.8309 11.0914 20.4531 12.0471 20.4531 13.0898C20.4532 14.1185 20.8204 15.063 21.4305 15.7992ZM22.6414 11.5358C22.7158 11.6101 22.8132 11.6473 22.9107 11.6473C23.0082 11.6473 23.1057 11.6101 23.18 11.5357C23.3287 11.3869 23.3287 11.1458 23.18 10.9971L22.5386 10.3559C23.1346 9.88235 23.8877 9.59838 24.7064 9.59838C25.525 9.59838 26.2781 9.8823 26.874 10.3558L26.2326 10.9971C26.0839 11.1458 26.0838 11.3869 26.2326 11.5357C26.3069 11.6101 26.4044 11.6473 26.5019 11.6473C26.5993 11.6473 26.6968 11.6101 26.7712 11.5358L27.416 10.8912C27.9044 11.4919 28.1978 12.2571 28.1978 13.0898C28.1978 13.9084 27.9139 14.6615 27.4403 15.2576L26.7988 14.6162C26.65 14.4675 26.4089 14.4675 26.2601 14.6163C26.1114 14.7651 26.1114 15.0062 26.2602 15.1549L26.9049 15.7995C26.3042 16.2878 25.539 16.5812 24.7064 16.5812C23.8737 16.5812 23.1085 16.2878 22.5078 15.7994L23.1525 15.1549C23.3012 15.0062 23.3012 14.7651 23.1525 14.6163C23.0038 14.4675 22.7627 14.4675 22.6139 14.6162L21.9724 15.2575C21.4989 14.6615 21.2149 13.9084 21.2149 13.0898C21.2149 12.2571 21.5083 11.4919 21.9966 10.8912L22.6414 11.5358Z" fill="#E2B359"/>
<path d="M24.7064 14.7188C25.6046 14.7188 26.3354 13.988 26.3354 13.0897C26.3354 12.1915 25.6046 11.4608 24.7064 11.4608C23.8082 11.4608 23.0774 12.1915 23.0774 13.0897C23.0774 13.988 23.8082 14.7188 24.7064 14.7188ZM24.7064 12.2226C25.1846 12.2226 25.5737 12.6116 25.5737 13.0898C25.5737 13.568 25.1846 13.957 24.7064 13.957C24.2282 13.957 23.8391 13.568 23.8391 13.0897C23.8391 12.6115 24.2282 12.2226 24.7064 12.2226Z" fill="#E2B359"/>
<path d="M11.8491 25.3807L11.4392 25.7905C11.2905 25.9393 11.2904 26.1804 11.4392 26.3292C11.5135 26.4036 11.611 26.4407 11.7085 26.4407C11.8059 26.4407 11.9034 26.4036 11.9778 26.3292L12.3858 25.9213C13.1264 26.5465 14.0822 26.9243 15.125 26.9243C16.1678 26.9243 17.1235 26.5465 17.8641 25.9213L18.2721 26.3292C18.3465 26.4036 18.4439 26.4407 18.5414 26.4407C18.6388 26.4407 18.7364 26.4036 18.8107 26.3292C18.9594 26.1804 18.9594 25.9393 18.8107 25.7905L18.4008 25.3808C19.0109 24.6444 19.3782 23.7 19.3782 22.6713C19.3782 21.6285 19.0003 20.6728 18.3752 19.9322L18.8107 19.4969C18.9594 19.3481 18.9595 19.107 18.8107 18.9582C18.662 18.8095 18.4208 18.8095 18.2721 18.9582L17.8346 19.3956C17.0982 18.7854 16.1537 18.4182 15.125 18.4182C14.0962 18.4182 13.1517 18.7855 12.4153 19.3956L11.9777 18.9582C11.829 18.8095 11.5878 18.8095 11.4391 18.9582C11.2904 19.107 11.2904 19.3481 11.4392 19.4969L11.8747 19.9323C11.2496 20.6728 10.8718 21.6285 10.8718 22.6713C10.8718 23.7 11.239 24.6444 11.8491 25.3807ZM13.06 21.1172C13.1344 21.1916 13.2319 21.2287 13.3293 21.2287C13.4268 21.2287 13.5243 21.1916 13.5987 21.1172C13.7474 20.9684 13.7474 20.7273 13.5986 20.5785L12.9573 19.9373C13.5533 19.4637 14.3064 19.1798 15.125 19.1798C15.9436 19.1798 16.6967 19.4637 17.2927 19.9373L16.6513 20.5785C16.5025 20.7273 16.5025 20.9684 16.6512 21.1172C16.7256 21.1916 16.823 21.2287 16.9205 21.2287C17.018 21.2287 17.1154 21.1916 17.1898 21.1172L17.8347 20.4726C18.323 21.0733 18.6164 21.8385 18.6164 22.6712C18.6164 23.4899 18.3325 24.243 17.8589 24.839L17.2174 24.1977C17.0686 24.049 16.8276 24.049 16.6788 24.1977C16.5301 24.3465 16.5301 24.5876 16.6788 24.7364L17.3235 25.3809C16.7229 25.8692 15.9577 26.1626 15.125 26.1626C14.2923 26.1626 13.5271 25.8692 12.9264 25.3809L13.5711 24.7364C13.7198 24.5876 13.7199 24.3465 13.5712 24.1977C13.4224 24.049 13.1813 24.0489 13.0325 24.1977L12.3911 24.8389C11.9175 24.243 11.6335 23.4898 11.6335 22.6712C11.6335 21.8385 11.927 21.0733 12.4153 20.4727L13.06 21.1172Z" fill="#E2B359"/>
<path d="M15.1249 24.3002C16.0231 24.3002 16.7539 23.5694 16.7539 22.6712C16.7539 21.773 16.0231 21.0423 15.1249 21.0423C14.2266 21.0423 13.4958 21.773 13.4958 22.6712C13.4958 23.5694 14.2266 24.3002 15.1249 24.3002ZM15.1249 21.804C15.6031 21.804 15.9922 22.193 15.9922 22.6712C15.9922 23.1494 15.6031 23.5385 15.1249 23.5385C14.6467 23.5385 14.2576 23.1494 14.2576 22.6712C14.2576 22.193 14.6467 21.804 15.1249 21.804Z" fill="#E2B359"/>
<path d="M21.4305 25.3807L21.0206 25.7905C20.8718 25.9393 20.8718 26.1804 21.0205 26.3292C21.0949 26.4036 21.1924 26.4407 21.2899 26.4407C21.3873 26.4407 21.4847 26.4036 21.5591 26.3292L21.9672 25.9213C22.7078 26.5465 23.6636 26.9243 24.7064 26.9243C25.7491 26.9243 26.7049 26.5465 27.4455 25.9213L27.8534 26.3292C27.9278 26.4036 28.0253 26.4407 28.1227 26.4407C28.2202 26.4407 28.3177 26.4036 28.3921 26.3292C28.5408 26.1804 28.5408 25.9393 28.392 25.7905L27.9822 25.3808C28.5923 24.6444 28.9595 23.7 28.9595 22.6713C28.9595 21.6285 28.5817 20.6728 27.9566 19.9322L28.392 19.4969C28.5408 19.3481 28.5408 19.107 28.3921 18.9582C28.2433 18.8095 28.0022 18.8095 27.8534 18.9582L27.4159 19.3956C26.6796 18.7854 25.7351 18.4182 24.7063 18.4182C23.6775 18.4182 22.733 18.7855 21.9967 19.3956L21.5591 18.9582C21.4103 18.8095 21.1692 18.8095 21.0205 18.9582C20.8718 19.107 20.8718 19.3481 21.0205 19.4969L21.456 19.9323C20.8309 20.6729 20.4531 21.6286 20.4531 22.6713C20.4532 23.7 20.8204 24.6444 21.4305 25.3807ZM22.6414 21.1172C22.7158 21.1916 22.8132 21.2287 22.9107 21.2287C23.0082 21.2287 23.1057 21.1916 23.18 21.1172C23.3287 20.9684 23.3287 20.7273 23.18 20.5785L22.5386 19.9373C23.1346 19.4637 23.8877 19.1798 24.7064 19.1798C25.525 19.1798 26.2781 19.4637 26.874 19.9373L26.2326 20.5785C26.0839 20.7273 26.0838 20.9684 26.2326 21.1172C26.3069 21.1916 26.4044 21.2287 26.5019 21.2287C26.5993 21.2287 26.6968 21.1916 26.7712 21.1172L27.416 20.4726C27.9044 21.0733 28.1978 21.8385 28.1978 22.6712C28.1978 23.4899 27.9139 24.243 27.4403 24.839L26.7988 24.1977C26.65 24.049 26.4089 24.049 26.2601 24.1977C26.1114 24.3465 26.1114 24.5876 26.2602 24.7364L26.9049 25.3809C26.3042 25.8692 25.539 26.1626 24.7064 26.1626C23.8737 26.1626 23.1085 25.8692 22.5078 25.3809L23.1525 24.7364C23.3012 24.5876 23.3012 24.3465 23.1525 24.1977C23.0038 24.049 22.7627 24.0489 22.6139 24.1977L21.9724 24.8389C21.4989 24.243 21.2149 23.4898 21.2149 22.6712C21.2149 21.8385 21.5083 21.0733 21.9966 20.4727L22.6414 21.1172Z" fill="#E2B359"/>
<path d="M24.7064 24.3002C25.6046 24.3002 26.3354 23.5694 26.3354 22.6712C26.3354 21.773 25.6046 21.0423 24.7064 21.0423C23.8082 21.0423 23.0774 21.773 23.0774 22.6712C23.0774 23.5694 23.8082 24.3002 24.7064 24.3002ZM24.7064 21.804C25.1846 21.804 25.5737 22.193 25.5737 22.6712C25.5737 23.1494 25.1846 23.5385 24.7064 23.5385C24.2282 23.5385 23.8391 23.1494 23.8391 22.6712C23.8391 22.193 24.2282 21.804 24.7064 21.804Z" fill="#E2B359"/>
<path d="M11.8306 30.5473C11.8306 31.2291 12.388 31.7837 13.0731 31.7837C13.7583 31.7837 14.3157 31.2291 14.3157 30.5473C14.3157 29.8655 13.7583 29.3108 13.0731 29.3108C12.388 29.3108 11.8306 29.8655 11.8306 30.5473ZM13.554 30.5473C13.554 30.809 13.3383 31.022 13.0732 31.022C12.8081 31.022 12.5923 30.809 12.5923 30.5473C12.5923 30.2855 12.8081 30.0725 13.0732 30.0725C13.3383 30.0725 13.554 30.2855 13.554 30.5473Z" fill="#E2B359"/>
<path d="M16.3994 30.5473C16.3994 31.2291 16.9568 31.7837 17.642 31.7837C18.3272 31.7837 18.8846 31.2291 18.8846 30.5473C18.8846 29.8655 18.3272 29.3108 17.642 29.3108C16.9568 29.3108 16.3994 29.8655 16.3994 30.5473ZM18.1229 30.5473C18.1229 30.809 17.9072 31.022 17.642 31.022C17.3769 31.022 17.1611 30.809 17.1611 30.5473C17.1611 30.2855 17.3769 30.0725 17.642 30.0725C17.9072 30.0725 18.1229 30.2855 18.1229 30.5473Z" fill="#E2B359"/>
<path d="M28.0105 30.5473C28.0105 29.8655 27.4559 29.3108 26.7741 29.3108C26.0923 29.3108 25.5376 29.8655 25.5376 30.5473C25.5376 31.2291 26.0923 31.7837 26.7741 31.7837C27.4559 31.7837 28.0105 31.2291 28.0105 30.5473ZM26.2993 30.5473C26.2993 30.2855 26.5123 30.0725 26.7741 30.0725C27.0359 30.0725 27.2488 30.2855 27.2488 30.5473C27.2488 30.809 27.0359 31.022 26.7741 31.022C26.5123 31.022 26.2993 30.809 26.2993 30.5473Z" fill="#E2B359"/>
<path d="M20.9685 30.5473C20.9685 31.2291 21.5259 31.7837 22.2111 31.7837C22.8962 31.7837 23.4536 31.2291 23.4536 30.5473C23.4536 29.8655 22.8962 29.3108 22.2111 29.3108C21.5259 29.3108 20.9685 29.8655 20.9685 30.5473ZM22.6919 30.5473C22.6919 30.809 22.4762 31.022 22.2111 31.022C21.9459 31.022 21.7302 30.809 21.7302 30.5473C21.7302 30.2855 21.9459 30.0725 22.2111 30.0725C22.4762 30.0725 22.6919 30.2855 22.6919 30.5473Z" fill="#E2B359"/>
</svg>
