<svg width="40" height="40" viewBox="0 0 40 40" fill="none" xmlns="http://www.w3.org/2000/svg">
<rect width="40" height="40" rx="2" fill="#2F3B41"/>
<path d="M30.0032 32H9.99692C8.89583 32 8 31.1042 8 30.0032V9.99678C8 8.89568 8.89583 8 9.99692 8H30.0032C31.1043 8 32.0001 8.89568 32.0001 9.99678V30.0031C32 31.1042 31.1042 32 30.0032 32ZM9.99692 8.71324C9.2891 8.71324 8.71324 9.2891 8.71324 9.99678V30.0031C8.71324 30.7109 9.2891 31.2868 9.99692 31.2868H30.0032C30.711 31.2868 31.2869 30.7109 31.2869 30.0031V9.99678C31.2869 9.2891 30.711 8.71324 30.0032 8.71324H9.99692ZM28.407 29.3435H11.593C11.0766 29.3435 10.6567 28.9234 10.6567 28.407V11.593C10.6567 11.0766 11.0768 10.6567 11.593 10.6567H28.407C28.9234 10.6567 29.3435 11.0768 29.3435 11.593V28.407C29.3435 28.9234 28.9234 29.3435 28.407 29.3435ZM20.3567 28.6302H28.407C28.5301 28.6302 28.6302 28.5301 28.6302 28.407V11.593C28.6302 11.4699 28.5301 11.3699 28.407 11.3699H20.3567V12.7958H21.9124C22.68 12.7958 23.3046 13.4203 23.3046 14.188V14.2089C23.3046 14.9766 22.6801 15.6011 21.9124 15.6011H20.3567V28.6302ZM11.593 11.3699C11.4699 11.3699 11.3699 11.47 11.3699 11.593V28.407C11.3699 28.5301 11.47 28.6302 11.593 28.6302H19.6435V15.6011H18.0876C17.3199 15.6011 16.6954 14.9766 16.6954 14.2089V14.188C16.6954 13.4203 17.3199 12.7958 18.0876 12.7958H19.6435V11.3699H11.593ZM18.0876 13.5089C17.7131 13.5089 17.4086 13.8135 17.4086 14.1879V14.2087C17.4086 14.5832 17.7131 14.8877 18.0876 14.8877H21.9124C22.2869 14.8877 22.5914 14.5832 22.5914 14.2087V14.1879C22.5914 13.8135 22.2869 13.5089 21.9124 13.5089H18.0876Z" fill="#E2B359"/>
</svg>
