<svg width="40" height="40" viewBox="0 0 40 40" fill="none" xmlns="http://www.w3.org/2000/svg">
<rect width="40" height="40" rx="2" fill="#2F3B41"/>
<path d="M31.1562 21.2188H30.3438H14.098C14.0972 21.2188 14.0964 21.2188 14.0956 21.2188H10.0312H9.21875C8.54671 21.2188 8 21.7655 8 22.4375C8 22.6619 8.1819 22.8438 8.40625 22.8438C8.6306 22.8438 8.8125 22.6619 8.8125 22.4375C8.8125 22.2135 8.99475 22.0312 9.21875 22.0312H9.55167L8.60851 27.6905C8.46582 28.5468 8.63319 29.4285 9.07986 30.1729L9.625 31.0813V32.543C9.625 32.795 9.83005 33 10.082 33H30.293C30.5449 33 30.75 32.795 30.75 32.543V31.0813L31.2951 30.1729C31.7418 29.4285 31.9092 28.5468 31.7665 27.6905L30.8233 22.0312H31.1562C31.3802 22.0312 31.5625 22.2135 31.5625 22.4375C31.5625 22.6619 31.7444 22.8438 31.9688 22.8438C32.1931 22.8438 32.375 22.6619 32.375 22.4375C32.375 21.7655 31.8283 21.2188 31.1562 21.2188ZM28.5672 29.7548L28.0825 30.5625H26.8813L27.1683 29.845C27.391 29.2883 27.4737 28.6791 27.4075 28.0832L26.7351 22.0312H27.9684L28.9338 27.8241C29.0448 28.4901 28.9146 29.1758 28.5672 29.7548ZM24.7884 30.5625L25.0594 29.6134C25.1796 29.1923 25.223 28.7574 25.1884 28.3207L24.6897 22.0312H25.9176L26.6 28.1729C26.6515 28.6364 26.5872 29.1102 26.4139 29.5431L26.0062 30.5625H24.7884ZM22.6485 30.5625L22.7321 29.077C22.737 28.9902 22.7388 28.9019 22.7374 28.8146L22.6314 22.0312H23.8747L24.3784 28.3849C24.4053 28.7246 24.3716 29.0628 24.2781 29.3903L23.9435 30.5625H22.6485ZM20.5938 30.5625V22.0312H21.8188L21.925 28.8273C21.926 28.8952 21.9247 28.9639 21.9209 29.0315L21.8347 30.5625H20.5938ZM18.5379 30.5625L18.4428 29.0419C18.4381 28.9665 18.4364 28.8903 18.4377 28.8151L18.5555 22.0312H19.7812V30.5625H18.5379ZM12.2925 30.5625L11.8078 29.7548C11.4604 29.1759 11.3302 28.4902 11.4412 27.8241L12.4066 22.0312H13.6399L12.9674 28.0832C12.9012 28.6791 12.9839 29.2883 13.2066 29.845L13.4936 30.5625H12.2925ZM14.3688 30.5625L13.961 29.5432C13.7878 29.1103 13.7235 28.6364 13.7749 28.1729L14.4574 22.0312H15.685L15.1831 28.3164C15.148 28.7561 15.192 29.1939 15.3139 29.6178L15.5855 30.5625H14.3688ZM16.4309 30.5625L16.0947 29.3933C15.9999 29.0636 15.9657 28.7231 15.993 28.3811L16.5001 22.0312H17.7429L17.6254 28.8009C17.6237 28.8975 17.6259 28.9956 17.6319 29.0925L17.7238 30.5625H16.4309ZM9.40994 27.8241L10.3754 22.0312H11.583L10.6398 27.6905C10.4971 28.5468 10.6644 29.4285 11.1111 30.1729L11.3449 30.5625H10.2612L9.77658 29.7548C9.42919 29.1758 9.29898 28.4901 9.40994 27.8241ZM29.9375 32.1875H10.4375V31.375H12.0621C12.0623 31.375 12.0626 31.3751 12.0629 31.3751C12.0631 31.3751 12.0634 31.375 12.0636 31.375H14.0925C14.093 31.375 14.0934 31.3751 14.0939 31.3751C14.0946 31.3751 14.0953 31.375 14.096 31.375H16.1236C16.124 31.375 16.1244 31.3751 16.1248 31.3751C16.1253 31.3751 16.1258 31.375 16.1262 31.375H24.2488C24.2492 31.375 24.2497 31.3751 24.2502 31.3751C24.2506 31.3751 24.251 31.375 24.2514 31.375H26.279C26.2797 31.375 26.2804 31.3751 26.2811 31.3751C26.2816 31.3751 26.282 31.375 26.2825 31.375H28.3114C28.3116 31.375 28.3119 31.3751 28.3121 31.3751C28.3124 31.3751 28.3127 31.375 28.3129 31.375H29.9375V32.1875ZM30.5984 29.7548L30.1138 30.5625H29.0301L29.2639 30.1729C29.7106 29.4285 29.8779 28.5468 29.7352 27.6905L28.7921 22.0312H29.9996L30.9651 27.8241C31.076 28.4901 30.9458 29.1758 30.5984 29.7548Z" fill="#E2B359"/>
<path d="M12.4688 20.4062C12.6931 20.4062 12.875 20.2244 12.875 20V7.8125H27.5V20C27.5 20.2244 27.6819 20.4062 27.9062 20.4062C28.1306 20.4062 28.3125 20.2244 28.3125 20V7.8125C28.3125 7.36451 27.948 7 27.5 7H12.875C12.427 7 12.0625 7.36451 12.0625 7.8125V20C12.0625 20.2244 12.2444 20.4062 12.4688 20.4062Z" fill="#E2B359"/>
<path d="M26.2812 20.4062C26.5056 20.4062 26.6875 20.2244 26.6875 20V9.03125C26.6875 8.8069 26.5056 8.625 26.2812 8.625H14.0938C13.8694 8.625 13.6875 8.8069 13.6875 9.03125V20C13.6875 20.2244 13.8694 20.4062 14.0938 20.4062C14.3181 20.4062 14.5 20.2244 14.5 20V13.9062H18.5624C18.7868 13.9062 18.9687 13.7244 18.9687 13.5C18.9687 13.2756 18.7868 13.0938 18.5624 13.0938H14.5V9.4375H19.7812V20C19.7812 20.2244 19.9631 20.4062 20.1875 20.4062C20.4119 20.4062 20.5938 20.2244 20.5938 20V13.9062H25.875V20C25.875 20.2244 26.0569 20.4062 26.2812 20.4062ZM20.5938 13.0938V9.4375H25.875V13.0938H20.5938Z" fill="#E2B359"/>
</svg>
