<svg width="40" height="40" viewBox="0 0 40 40" fill="none" xmlns="http://www.w3.org/2000/svg">
<rect width="40" height="40" rx="2" fill="#434B50"/>
<path d="M33.123 34C33.0025 34 32.8819 33.954 32.79 33.8621C32.6059 33.678 32.6059 33.38 32.79 33.1961L32.9985 32.9876H11.4884L11.6969 33.1959C11.881 33.38 11.881 33.678 11.6969 33.8619C11.513 34.046 11.2146 34.046 11.0309 33.8619L10.03 32.861C9.93658 32.7675 9.89061 32.6447 9.89212 32.5221C9.89212 32.5202 9.89212 32.5181 9.89212 32.5162C9.89212 32.3542 9.97388 32.2114 10.0984 32.1266L11.0545 31.1707C11.2384 30.9867 11.5368 30.9867 11.7205 31.1707C11.9045 31.3548 11.9045 31.6528 11.7205 31.8367L11.5119 32.0453H33.0222L32.8137 31.8367C32.6296 31.6526 32.6296 31.3546 32.8137 31.1707C32.9976 30.9867 33.296 30.9867 33.4797 31.1707L34.4806 32.1717C34.5742 32.2651 34.62 32.3879 34.6185 32.5106C34.6185 32.5126 34.6185 32.5145 34.6185 32.5164C34.6185 32.6784 34.5367 32.8212 34.4122 32.906L33.4561 33.8619C33.3642 33.954 33.2436 34 33.123 34ZM7.48353 30.7267C7.32152 30.7267 7.17853 30.6448 7.09394 30.5202L6.13804 29.5643C5.95399 29.3803 5.95399 29.0822 6.13804 28.8984C6.32191 28.7143 6.62033 28.7143 6.80401 28.8984L7.01256 29.1069V7.59639L6.80401 7.80494C6.62014 7.989 6.32173 7.989 6.13804 7.80494C5.95399 7.62088 5.95399 7.32285 6.13804 7.13898L7.13897 6.13805C7.23241 6.04461 7.35449 5.99695 7.47769 6.00015C7.64461 6.00411 7.7876 6.08041 7.87332 6.20663L8.82921 7.16253C9.01327 7.34658 9.01327 7.64462 8.82921 7.82849C8.64534 8.01255 8.34693 8.01255 8.16325 7.82849L7.9547 7.61994V29.1305L8.16325 28.9219C8.34712 28.7379 8.64553 28.7379 8.82921 28.9219C9.01327 29.106 9.01327 29.404 8.82921 29.5879L7.82829 30.5888C7.73485 30.6822 7.61089 30.7293 7.48956 30.7267C7.48749 30.7267 7.48561 30.7267 7.48353 30.7267ZM34.1475 29.3942H11.3874C11.1272 29.3942 10.9164 29.1834 10.9164 28.9232V6.47132C10.9164 6.21115 11.1272 6.00034 11.3874 6.00034H24.9881C25.2483 6.00034 25.4591 6.21115 25.4591 6.47132V15.6126H34.1473C34.4075 15.6126 34.6183 15.8234 34.6183 16.0836V28.923C34.6185 29.1832 34.4077 29.3942 34.1475 29.3942ZM25.4389 28.4523H33.6765V16.5546H25.4389V28.4523ZM16.4165 28.4523H24.4972V22.1434H16.4165V28.4523ZM11.8584 28.4523H15.4743V22.1434H11.8584V28.4523ZM15.9455 21.2014H24.4972V16.0836C24.4972 16.0359 24.5043 15.99 24.5173 15.9465V11.0283H11.8584V21.2014H15.9455ZM18.6487 10.0864H24.5173V6.9423H18.6487V10.0864ZM11.8584 10.0864H17.7066V6.9423H11.8584V10.0864Z" fill="#E2B359"/>
</svg>
