<svg width="40" height="40" viewBox="0 0 40 40" fill="none" xmlns="http://www.w3.org/2000/svg">
<rect width="40" height="40" rx="2" fill="#2F3B41"/>
<path d="M34.2453 33.3333H5.75483C5.52202 33.3333 5.33337 33.1386 5.33337 32.8984V7.10155C5.33337 6.8613 5.52202 6.66663 5.75483 6.66663H31.3241C31.5569 6.66663 31.7455 6.8613 31.7455 7.10155V19.9627H34.2453C34.4781 19.9627 34.6667 20.1574 34.6667 20.3977V32.8984C34.6667 33.1386 34.4781 33.3333 34.2453 33.3333ZM13.0039 32.4634H33.8238V20.8326H25.1079C24.8751 20.8326 24.6865 20.6379 24.6865 20.3977V19.5603H23.646C23.4132 19.5603 23.2245 19.3657 23.2245 19.1254C23.2245 18.8851 23.4132 18.6905 23.646 18.6905H24.6865V15.8779C24.6865 15.6376 24.8751 15.443 25.1079 15.443C25.3407 15.443 25.5294 15.6376 25.5294 15.8779V19.9627H27.9787V7.53648H25.5294V10.7167C25.5294 10.9569 25.3407 11.1516 25.1079 11.1516C24.8751 11.1516 24.6865 10.9569 24.6865 10.7167V9.38284H18.0613C17.8285 9.38284 17.6399 9.18817 17.6399 8.94791V7.53648H16.1012V9.55681C16.1012 9.79706 15.9126 9.99174 15.6798 9.99174C15.447 9.99174 15.2583 9.79706 15.2583 9.55681V7.53648H14.8021V8.65807C14.8021 8.89833 14.6135 9.093 14.3807 9.093H14.2494C14.3247 9.27063 14.3667 9.46687 14.3667 9.67285V10.8037C14.3667 11.6031 13.7365 12.2534 12.9619 12.2534C12.1873 12.2534 11.5571 11.6031 11.5571 10.8037V9.67285C11.5571 9.46669 11.5991 9.27063 11.6744 9.093H11.5431C11.3103 9.093 11.1216 8.89833 11.1216 8.65807V7.53648H9.59008V13.2972C9.59008 13.5374 9.40144 13.7321 9.16862 13.7321H8.62073V16.1743H15.2583V14.167C15.2583 13.9268 15.447 13.7321 15.6798 13.7321C15.9126 13.7321 16.1012 13.9268 16.1012 14.167V18.6903H17.1417C17.3745 18.6903 17.5632 18.885 17.5632 19.1252C17.5632 19.3655 17.3745 19.5602 17.1417 19.5602H16.1012V21.6913C16.1012 21.9316 15.9126 22.1262 15.6798 22.1262C15.447 22.1262 15.2583 21.9316 15.2583 21.6913V17.0442H9.23892V29.5346H12.5824C12.8152 29.5346 13.0039 29.7293 13.0039 29.9696V32.4634ZM6.17629 32.4634H12.161V30.4045H8.81747C8.58465 30.4045 8.39601 30.2098 8.39601 29.9696V22.4018H6.17629V32.4634ZM6.17629 21.5319H8.39601V17.0442H6.17629V21.5319ZM30.2836 19.9627H30.9026V7.53648H30.2836V19.9627ZM28.8216 19.9627H29.4407V7.53648H28.8216V19.9627ZM6.17629 16.0228H7.77782V13.7321H6.17629V16.0228ZM8.19927 12.8623H8.74717V7.53648H6.17629V12.8623H8.19927ZM12.9617 9.093C12.6519 9.093 12.3998 9.35326 12.3998 9.67285V10.8037C12.3998 11.1234 12.6519 11.3835 12.9617 11.3835C13.2716 11.3835 13.5236 11.1234 13.5236 10.8037V9.67285C13.5236 9.35326 13.2716 9.093 12.9617 9.093ZM18.4828 8.51298H24.6865V7.53648H18.4828V8.51298ZM12.9617 8.22315H13.9592V7.53648H11.9642V8.22315H12.9617ZM22.1842 31.1727H18.805C18.5721 31.1727 18.3835 30.9781 18.3835 30.7378V22.7678C18.3835 22.5276 18.5721 22.3329 18.805 22.3329H22.1842C22.417 22.3329 22.6056 22.5276 22.6056 22.7678V30.738C22.6056 30.9781 22.4168 31.1727 22.1842 31.1727ZM19.2264 30.3029H21.7627V29.868H20.2669C20.0341 29.868 19.8455 29.6733 19.8455 29.433V24.0726C19.8455 23.8324 20.0341 23.6377 20.2669 23.6377H21.7627V23.2028H19.2264V30.3029ZM20.6884 28.9981H21.7627V24.5076H20.6884V28.9981ZM31.3241 30.9118C31.0912 30.9118 30.9026 30.7171 30.9026 30.4769V22.9961C30.9026 22.7558 31.0912 22.5612 31.3241 22.5612C31.5569 22.5612 31.7455 22.7558 31.7455 22.9961V24.3454C31.9647 24.3607 32.138 24.5491 32.138 24.7793V28.6936C32.138 28.9238 31.9648 29.1122 31.7455 29.1275V30.4769C31.7455 30.7171 31.5569 30.9118 31.3241 30.9118ZM27.2611 30.3899C25.9207 30.3899 24.8707 28.8998 24.8707 26.9974C24.8707 25.0951 25.9207 23.605 27.2611 23.605C28.6015 23.605 29.6514 25.0951 29.6514 26.9974C29.6514 28.8998 28.6015 30.3899 27.2611 30.3899ZM27.2611 24.4748C26.4222 24.4748 25.7136 25.63 25.7136 26.9974C25.7136 28.3648 26.4224 29.52 27.2611 29.52C28.0998 29.52 28.8085 28.3648 28.8085 26.9974C28.8085 25.63 28.0998 24.4748 27.2611 24.4748Z" fill="#E2B359"/>
</svg>
