<svg width="115" height="30" viewBox="0 0 115 30" fill="none" xmlns="http://www.w3.org/2000/svg">
<path d="M30.7388 8.25156H25.8098V20.6288H30.7388C35.1554 20.6288 37.2047 18.0473 37.2047 14.4402C37.2047 10.8331 35.1554 8.25156 30.7388 8.25156ZM33.8481 14.4402C33.8481 16.7565 32.6998 17.7997 30.7388 17.7997H29.0781V11.0806H30.7388C32.6998 11.0806 33.8481 12.1239 33.8481 14.4402Z" fill="#FAFAFA"/>
<path d="M42.2245 8.25156H38.9562V20.6288H47.8778V17.7113H42.2245V8.25156Z" fill="#FAFAFA"/>
<path d="M49.2731 20.6288H52.5414V15.8547H54.0784L57.0817 20.6288H60.7034L56.6401 14.2811L60.5267 8.25156H56.9051L54.0961 12.9372H52.5414V8.25156H49.2731V20.6288Z" fill="#FAFAFA"/>
<path d="M64.8208 14.4402C64.8208 18.9314 68.1597 20.8941 71.6754 20.8941C73.071 20.8941 74.502 20.5935 75.774 20.063V13.8213H72.6824V17.9942C72.4704 18.0473 72.1877 18.0827 71.8344 18.0827C70.421 18.0827 68.1774 17.4991 68.1774 14.4402C68.1774 11.894 70.0677 10.8685 72.064 10.8685C73.3007 10.8685 74.555 11.2221 75.4737 11.8586V8.76433C74.3077 8.26924 72.965 7.98633 71.64 7.98633C68.1951 7.98633 64.8208 9.82524 64.8208 14.4402Z" fill="#FAFAFA"/>
<path d="M80.0729 13.2909V12.1416H77.4229V20.6288H80.4262V15.8017C80.9562 14.9883 82.2105 14.617 83.3942 14.8822V11.9647C81.7335 11.7879 80.6559 12.4421 80.0729 13.2909Z" fill="#FAFAFA"/>
<path d="M84.0034 16.3852C84.0034 19.3911 86.2294 20.8941 88.7734 20.8941C91.3173 20.8941 93.5433 19.3911 93.5433 16.3852C93.5433 13.3793 91.3173 11.8763 88.7734 11.8763C86.2294 11.8763 84.0034 13.3793 84.0034 16.3852ZM90.4517 16.3852C90.4517 17.34 90.01 18.2418 88.7734 18.2418C87.5367 18.2418 87.095 17.34 87.095 16.3852C87.095 15.4304 87.5367 14.5286 88.7734 14.5286C90.01 14.5286 90.4517 15.4304 90.4517 16.3852Z" fill="#FAFAFA"/>
<path d="M103.573 12.1416H100.57V17.5876C100.305 17.9235 99.7928 18.3302 99.1215 18.3302C98.3795 18.3302 97.8319 17.9058 97.8319 17.0041V12.1416H94.8286V17.4107C94.8286 19.3204 95.8885 20.8941 98.2205 20.8941C99.3512 20.8941 100.217 20.4166 100.924 19.6563V20.6288H103.573V12.1416Z" fill="#FAFAFA"/>
<path d="M108.022 13.2909V12.1416H105.372V24.5188H108.375V19.9392C108.888 20.4697 109.718 20.8941 110.901 20.8941C113.746 20.8941 115 18.5777 115 16.3852C115 14.1926 113.746 11.8763 110.901 11.8763C109.382 11.8763 108.446 12.5836 108.022 13.2909ZM111.908 16.3852C111.908 17.3754 111.361 18.4186 110.089 18.4186C109.259 18.4186 108.64 17.9058 108.375 17.3577V15.4127C108.64 14.8646 109.259 14.3518 110.089 14.3518C111.361 14.3518 111.908 15.395 111.908 16.3852Z" fill="#FAFAFA"/>
<path d="M3.92191 18.5237L0.947754 18.5237L0.947754 23.4878C0.947753 27.9359 3.66743 29.9999 7.46753 29.9999C11.2676 29.9999 13.9873 27.9359 13.9873 23.4878L13.9873 18.5237L6.19749 18.5237V21.8153L11.0068 21.8153L11.0068 23.4878C11.0068 25.4628 9.9078 26.6193 7.46754 26.6193C5.02727 26.6193 3.92823 25.4628 3.92823 23.4878V22.8429H3.92191V18.5237Z" fill="#E2B359"/>
<path d="M13.9873 16.8398L0.947754 16.8398L0.947754 13.4718L13.9873 13.4718V16.8398Z" fill="#E2B359"/>
<path d="M7.46781 -1.23862e-06C2.34534 -2.10056e-06 0.000174812 3.65733 0.000174112 7.50817C0.000173834 9.03689 0.343016 10.3946 0.948032 11.7879L8.17367 11.7879L8.17367 8.40146L3.3076 8.40146C3.2471 8.16925 3.20677 8.06934 3.20677 7.68232C3.20677 6.13425 3.97888 3.67668 7.46781 3.67668C10.3719 3.67668 11.5416 5.74723 11.5416 7.93389C11.5416 9.28845 11.1383 10.7816 10.4122 11.7879L13.9415 11.7879C14.5062 10.5107 14.8289 8.92079 14.8289 7.46947C14.8289 3.69603 12.7315 -3.52921e-07 7.46781 -1.23862e-06Z" fill="#E2B359"/>
</svg>
