<svg width="54" height="54" viewBox="0 0 54 54" fill="none" xmlns="http://www.w3.org/2000/svg">
<rect width="54" height="54" rx="2" fill="#434B50"/>
<path d="M40.9119 40.6667H12.4215C12.1886 40.6667 12 40.472 12 40.2317V14.4349C12 14.1947 12.1886 14 12.4215 14H37.9907C38.2235 14 38.4121 14.1947 38.4121 14.4349V27.2961H40.9119C41.1447 27.2961 41.3333 27.4908 41.3333 27.731V40.2317C41.3333 40.472 41.1447 40.6667 40.9119 40.6667ZM19.6705 39.7968H40.4904V28.166H31.7745C31.5417 28.166 31.3531 27.9713 31.3531 27.731V26.8937H30.3126C30.0798 26.8937 29.8911 26.699 29.8911 26.4588C29.8911 26.2185 30.0798 26.0238 30.3126 26.0238H31.3531V23.2113C31.3531 22.971 31.5417 22.7763 31.7745 22.7763C32.0074 22.7763 32.196 22.971 32.196 23.2113V27.2961H34.6453V14.8699H32.196V18.0501C32.196 18.2903 32.0074 18.485 31.7745 18.485C31.5417 18.485 31.3531 18.2903 31.3531 18.0501V16.7162H24.728C24.4952 16.7162 24.3065 16.5215 24.3065 16.2813V14.8699H22.7679V16.8902C22.7679 17.1304 22.5792 17.3251 22.3464 17.3251C22.1136 17.3251 21.925 17.1304 21.925 16.8902V14.8699H21.4688V15.9914C21.4688 16.2317 21.2801 16.4264 21.0473 16.4264H20.916C20.9913 16.604 21.0333 16.8002 21.0333 17.0062V18.137C21.0333 18.9364 20.4032 19.5867 19.6285 19.5867C18.8539 19.5867 18.2237 18.9364 18.2237 18.137V17.0062C18.2237 16.8001 18.2657 16.604 18.3411 16.4264H18.2097C17.9769 16.4264 17.7883 16.2317 17.7883 15.9914V14.8699H16.2567V20.6306C16.2567 20.8708 16.0681 21.0655 15.8352 21.0655H15.2874V23.5077H21.925V21.5004C21.925 21.2602 22.1136 21.0655 22.3464 21.0655C22.5792 21.0655 22.7679 21.2602 22.7679 21.5004V26.0237H23.8084C24.0412 26.0237 24.2298 26.2183 24.2298 26.4586C24.2298 26.6989 24.0412 26.8935 23.8084 26.8935H22.7679V29.0247C22.7679 29.2649 22.5792 29.4596 22.3464 29.4596C22.1136 29.4596 21.925 29.2649 21.925 29.0247V24.3776H15.9055V36.868H19.249C19.4819 36.868 19.6705 37.0627 19.6705 37.3029V39.7968ZM12.8429 39.7968H18.8276V37.7379H15.4841C15.2513 37.7379 15.0626 37.5432 15.0626 37.3029V29.7352H12.8429V39.7968ZM12.8429 28.8653H15.0626V24.3776H12.8429V28.8653ZM36.9502 27.2961H37.5692V14.8699H36.9502V27.2961ZM35.4882 27.2961H36.1073V14.8699H35.4882V27.2961ZM12.8429 23.3562H14.4444V21.0655H12.8429V23.3562ZM14.8659 20.1956H15.4138V14.8699H12.8429V20.1956H14.8659ZM19.6284 16.4264C19.3185 16.4264 19.0665 16.6866 19.0665 17.0062V18.137C19.0665 18.4568 19.3185 18.7169 19.6284 18.7169C19.9382 18.7169 20.1902 18.4568 20.1902 18.137V17.0062C20.1902 16.6866 19.9382 16.4264 19.6284 16.4264ZM25.1494 15.8464H31.3531V14.8699H25.1494V15.8464ZM19.6284 15.5565H20.6259V14.8699H18.6309V15.5565H19.6284ZM28.8508 38.5061H25.4716C25.2388 38.5061 25.0501 38.3114 25.0501 38.0712V30.1012C25.0501 29.861 25.2388 29.6663 25.4716 29.6663H28.8508C29.0836 29.6663 29.2723 29.861 29.2723 30.1012V38.0714C29.2723 38.3114 29.0835 38.5061 28.8508 38.5061ZM25.893 37.6363H28.4294V37.2013H26.9335C26.7007 37.2013 26.5121 37.0067 26.5121 36.7664V31.406C26.5121 31.1657 26.7007 30.9711 26.9335 30.9711H28.4294V30.5361H25.893V37.6363ZM27.355 36.3315H28.4294V31.8409H27.355V36.3315ZM37.9907 38.2452C37.7579 38.2452 37.5692 38.0505 37.5692 37.8102V30.3295C37.5692 30.0892 37.7579 29.8945 37.9907 29.8945C38.2235 29.8945 38.4121 30.0892 38.4121 30.3295V31.6788C38.6313 31.6941 38.8046 31.8825 38.8046 32.1127V36.027C38.8046 36.2572 38.6315 36.4456 38.4121 36.4609V37.8102C38.4121 38.0505 38.2235 38.2452 37.9907 38.2452ZM33.9277 37.7232C32.5873 37.7232 31.5373 36.2332 31.5373 34.3308C31.5373 32.4284 32.5873 30.9384 33.9277 30.9384C35.2681 30.9384 36.318 32.4284 36.318 34.3308C36.318 36.2332 35.2681 37.7232 33.9277 37.7232ZM33.9277 31.8082C33.0888 31.8082 32.3803 32.9634 32.3803 34.3308C32.3803 35.6982 33.089 36.8534 33.9277 36.8534C34.7664 36.8534 35.4751 35.6982 35.4751 34.3308C35.4751 32.9634 34.7664 31.8082 33.9277 31.8082Z" fill="#FAFAFA"/>
</svg>
