<svg width="100" height="100" viewBox="0 0 100 100" fill="none" xmlns="http://www.w3.org/2000/svg">
<path d="M0 50C0 22.3858 22.3858 0 50 0C77.6142 0 100 22.3858 100 50C100 77.6142 77.6142 100 50 100C22.3858 100 0 77.6142 0 50Z" fill="#054B4B"/>
<path d="M43.4741 57L38 57L38 66.0837C38 74.2233 43.0057 78 50 78C56.9943 78 62 74.2233 62 66.0837L62 57L47.6624 57V63.0233L56.5143 63.0233L56.5143 66.0837C56.5143 69.6977 54.4914 71.814 50 71.814C45.5086 71.814 43.4857 69.6977 43.4857 66.0837V64.9037H43.4741V57Z" fill="#E2B359"/>
<path d="M62 54L38 54L38 47L62 47V54Z" fill="#E2B359"/>
<path d="M50.1006 22C40.4282 22 36 28.8258 36 36.0127C36 38.8658 36.6474 41.3997 37.7898 44L51.4335 44L51.4335 37.6799L42.2452 37.6799C42.131 37.2465 42.0548 37.06 42.0548 36.3377C42.0548 33.4485 43.5127 28.8619 50.1006 28.8619C55.5842 28.8619 57.7929 32.7262 57.7929 36.8072C57.7929 39.3353 57.0313 42.122 55.6604 44L62.3245 44C63.3907 41.6164 64 38.6491 64 35.9404C64 28.898 60.0396 22 50.1006 22Z" fill="#E2B359"/>
</svg>
