<svg width="416" height="426" viewBox="0 0 416 426" fill="none" xmlns="http://www.w3.org/2000/svg">
<path d="M303.661 49.5088C327.136 70.6522 342.499 100.153 367.163 142.554C391.941 184.956 426.11 240.254 413.152 273.222C400.194 306.189 339.88 316.816 282.931 338.435C225.981 360.054 172.366 392.541 123.043 386.208C73.7204 379.875 28.691 334.733 17.3659 284.805C5.92597 234.758 28.0859 179.936 44.0486 130.008C59.8965 80.0865 69.5472 35.0385 97.3045 14.6429C125.062 -5.7526 170.936 -1.37017 209.779 7.10705C248.616 15.6889 280.187 28.3707 303.661 49.5088Z" fill="#054B4B"/>
<path d="M279.994 405.662H288.867V398.132H279.994V405.662Z" fill="#DE8E68"/>
<path d="M289.702 404.486V412.016H268.591V409.276L279.571 404.486H289.702Z" fill="#FAFAFA"/>
<path d="M142.068 313.281H150.941V305.75H142.068V313.281Z" fill="#DE8E68"/>
<path d="M151.776 312.104V319.635H130.67V316.9L141.651 312.104H151.776Z" fill="#FAFAFA"/>
<path d="M279.686 211.387C280.135 215.664 289.561 400.119 289.561 400.119H279.686L231.667 226.443L279.686 211.387Z" fill="#729191"/>
<path d="M284.756 191.064C284.756 216.114 275.57 238.654 256.973 238.654C231.443 238.654 197.645 222.337 188.344 213.128C186.022 220.01 153.096 306.697 153.096 306.697H139.459C139.459 306.697 148.197 205.765 164.577 179.878C169.966 172.682 213.942 174.481 236.159 179.878C258.376 185.275 284.756 191.064 284.756 191.064Z" fill="#85A4A4"/>
<path d="M218.814 45.1107C218.969 44.3369 219.402 43.6472 220.031 43.1727C220.66 42.6983 221.441 42.4723 222.225 42.5377C224.223 42.6789 227.489 47.9713 227.489 52.2544C227.489 56.5374 226.284 58.1482 226.649 61.2598C227.014 64.3714 234.917 106.564 234.917 109.137C236.91 109.278 244.041 108.279 244.041 108.279L239.049 128.434H224.516L215.126 47.2548L218.814 45.1107Z" fill="#D37C59"/>
<path d="M232.752 52.2962L229.69 64.7009C229.69 64.7009 199.481 61.1814 196.184 60.3656C192.888 59.5497 197.854 39.0391 201.239 39.8759C204.625 40.7126 232.752 52.2962 232.752 52.2962Z" fill="#FAFAFA"/>
<path d="M260.432 88.9925C299.076 88.9925 289.545 189.082 285.033 192.827C280.521 196.571 232.476 183.936 228.485 178.362C224.495 172.787 232.09 88.9925 260.432 88.9925Z" fill="#E2B359"/>
<path d="M246.639 114.403C244.516 115.125 232.064 119.994 232.064 119.994C231.855 117.484 222.283 67.6975 221.693 64.6486C222.901 61.6055 223.499 58.3533 223.451 55.0784C223.451 46.9045 220.139 40.2681 216.054 40.2681C211.97 40.2681 208.662 46.9045 208.662 55.0784C208.604 58.4996 209.262 61.8951 210.593 65.0461C210.134 71.2693 206.012 130.359 214.422 138.784C223.29 147.674 244.85 139.657 257.954 133.685C260.76 132.712 256.937 111.611 246.639 114.403Z" fill="#DE8E68"/>
<path d="M237.393 57.4204L229.578 55.3402L228.128 60.8142L235.943 62.8944L237.393 57.4204Z" fill="#434B50"/>
<path d="M285.059 107.38C290.949 118.843 267.625 139.495 261.172 137.958C254.72 136.42 244.313 113.336 246.258 109.195C248.204 105.053 279.331 96.2251 285.059 107.38Z" fill="#FFD075"/>
<path d="M262.8 98.6935C262.8 100.634 250.995 101.125 250.995 98.6935V76.3525H262.8V98.6935Z" fill="#D37C59"/>
<path d="M252.633 89.322C261.143 89.322 268.043 78.1372 268.043 64.34C268.043 50.5429 261.143 39.3581 252.633 39.3581C244.122 39.3581 237.223 50.5429 237.223 64.34C237.223 78.1372 244.122 89.322 252.633 89.322Z" fill="#DC8E6C"/>
<path d="M241.089 47.7883C240.971 49.5825 241.332 51.3758 242.134 52.984C242.936 54.5923 244.151 55.9577 245.653 56.9401C250.249 60.0779 253.525 58.692 256.895 61.6468C258.674 63.4301 263.03 66.8764 263.071 72.2001C263.071 76.1381 264.36 78.1253 265.492 78.1253C266.624 78.1253 269.608 77.3409 271.527 77.3409C290.38 77.3409 312.519 96.8526 354.992 96.8526C377.178 96.8526 411.994 91.2412 411.994 58.577C411.994 40.9375 405.661 19.6215 372.186 19.6215C350.929 19.6215 336.035 30.0808 318.57 30.0808C296.139 30.0808 287.49 21.9382 271.992 21.9382C260.953 21.9382 236.112 28.3498 236.112 45.1473C236.112 51.5275 238.105 53.3787 238.72 53.7082C238.919 53.0074 240.134 49.3885 241.089 47.7883Z" fill="#434B50"/>
<path d="M261.485 74.1979C263.658 74.1979 265.419 72.4325 265.419 70.2548C265.419 68.077 263.658 66.3116 261.485 66.3116C259.313 66.3116 257.552 68.077 257.552 70.2548C257.552 72.4325 259.313 74.1979 261.485 74.1979Z" fill="#DC8E6C"/>
<path d="M7.04053 401.7H54.4535V418H77.1293V401.7H88.8747V383.004H77.1293V319.818H47.2625L7.04053 383.195V401.7ZM54.9329 383.004H30.6272V382.237L54.1659 344.939H54.9329V383.004Z" fill="#E2B359"/>
<path d="M141.921 420.397C167.617 420.445 183.389 401.461 183.437 369.053C183.485 336.837 167.617 318.476 141.921 318.476C116.225 318.476 100.5 336.789 100.452 369.053C100.356 401.365 116.225 420.397 141.921 420.397ZM141.921 400.981C131.709 400.981 124.758 390.722 124.854 369.053C124.902 347.815 131.757 337.748 141.921 337.748C152.132 337.748 158.987 347.815 159.035 369.053C159.083 390.722 152.18 400.981 141.921 400.981Z" fill="#E2B359"/>
<path d="M195.83 401.7H243.243V418H265.918V401.7H277.664V383.004H265.918V319.818H236.052L195.83 383.195V401.7ZM243.722 383.004H219.416V382.237L242.955 344.939H243.722V383.004Z" fill="#E2B359"/>
</svg>
